<svg width="94" height="94" viewBox="0 0 201 201" fill="none" xmlns="http://www.w3.org/2000/svg">
    <path d="M100.5 201C156.005 201 201 156.005 201 100.5C201 44.9954 156.005 0 100.5 0C44.9954 0 0 44.9954 0 100.5C0 156.005 44.9954 201 100.5 201Z" fill="#4DC0B5"/>
    <g clip-path="url(#clip0)">
        <path opacity="0.4" d="M124.75 121.719C124.75 122.523 124.431 123.294 123.862 123.862C123.294 124.431 122.523 124.75 121.719 124.75H115.656C114.852 124.75 114.081 124.431 113.513 123.862C112.944 123.294 112.625 122.523 112.625 121.719V118.688H88.375V121.719C88.375 122.523 88.0556 123.294 87.4872 123.862C86.9187 124.431 86.1477 124.75 85.3438 124.75H79.2812C78.4773 124.75 77.7063 124.431 77.1378 123.862C76.5694 123.294 76.25 122.523 76.25 121.719V118.688H52V136.875C52 138.483 52.6387 140.025 53.7757 141.162C54.9126 142.299 56.4546 142.938 58.0625 142.938H142.938C144.545 142.938 146.087 142.299 147.224 141.162C148.361 140.025 149 138.483 149 136.875V118.688H124.75V121.719ZM147.225 92.6623L138.652 84.0896C138.089 83.5263 137.421 83.0794 136.685 82.7745C135.95 82.4696 135.161 82.3126 134.365 82.3125H66.6353C65.8391 82.3124 65.0507 82.4691 64.315 82.7737C63.5794 83.0782 62.911 83.5247 62.3479 84.0877L53.7752 92.6623C53.2123 93.2254 52.7657 93.8938 52.4612 94.6294C52.1566 95.365 51.9999 96.1535 52 96.9496V112.625H76.25V109.594C76.25 108.79 76.5694 108.019 77.1378 107.45C77.7063 106.882 78.4773 106.562 79.2812 106.562H85.3438C86.1477 106.562 86.9187 106.882 87.4872 107.45C88.0556 108.019 88.375 108.79 88.375 109.594V112.625H112.625V109.594C112.625 108.79 112.944 108.019 113.513 107.45C114.081 106.882 114.852 106.562 115.656 106.562H121.719C122.523 106.562 123.294 106.882 123.862 107.45C124.431 108.019 124.75 108.79 124.75 109.594V112.625H149V96.9478C149 95.3404 148.361 93.799 147.225 92.6623Z" fill="white"/>
        <path d="M115.656 58.0625H85.3438C82.9319 58.0625 80.6189 59.0206 78.9135 60.726C77.2081 62.4314 76.25 64.7444 76.25 67.1562V82.3125H88.375V70.1875H112.625V82.3125H124.75V67.1562C124.75 64.7444 123.792 62.4314 122.087 60.726C120.381 59.0206 118.068 58.0625 115.656 58.0625ZM85.3438 106.562H79.2812C78.4773 106.562 77.7063 106.882 77.1378 107.45C76.5694 108.019 76.25 108.79 76.25 109.594V121.719C76.25 122.523 76.5694 123.294 77.1378 123.862C77.7063 124.431 78.4773 124.75 79.2812 124.75H85.3438C86.1477 124.75 86.9187 124.431 87.4872 123.862C88.0556 123.294 88.375 122.523 88.375 121.719V109.594C88.375 108.79 88.0556 108.019 87.4872 107.45C86.9187 106.882 86.1477 106.562 85.3438 106.562ZM121.719 106.562H115.656C114.852 106.562 114.081 106.882 113.513 107.45C112.944 108.019 112.625 108.79 112.625 109.594V121.719C112.625 122.523 112.944 123.294 113.513 123.862C114.081 124.431 114.852 124.75 115.656 124.75H121.719C122.523 124.75 123.294 124.431 123.862 123.862C124.431 123.294 124.75 122.523 124.75 121.719V109.594C124.75 108.79 124.431 108.019 123.862 107.45C123.294 106.882 122.523 106.562 121.719 106.562Z" fill="white"/>
    </g>
    <defs>
        <clipPath id="clip0">
            <rect x="52" y="52" width="97" height="97" fill="white"/>
        </clipPath>
    </defs>
</svg>
